<?xml version="1.0" encoding="utf-8"?>
<!-- Generator: Adobe Illustrator 22.1.0, SVG Export Plug-In . SVG Version: 6.00 Build 0)  -->
<svg version="1.1" id="Layer_1" xmlns="http://www.w3.org/2000/svg" xmlns:xlink="http://www.w3.org/1999/xlink" x="0px" y="0px"
	 width="82.9px" height="20.6px" viewBox="0 0 82.9 20.6" style="enable-background:new 0 0 82.9 20.6;" xml:space="preserve">
<style type="text/css">
	.st0{fill:#4E4347;}
	.st1{display:none;enable-background:new    ;}
	.st2{display:inline;fill:#FFFFFF;}
	.st3{fill:#FFFFFF;}
	.st4{font-family:'JosefinSans-Bold';}
	.st5{font-size:6px;}
</style>
<path class="st0" d="M11.5,0H3.6H2.3C2.3,0,2.1,0,1.9,0c-2,0.2-2,1.3-2,1.4v3.4v11v3.4c-0.1,0.1,0,1.2,2,1.4c0.2,0,0.3,0,0.4,0h1.3
	h8h59.8h7.9h1.3c0.1,0,0.2,0,0.4,0c2-0.2,2-1.3,2-1.4v-3.4v-11V1.5c0.1-0.1,0-1.2-2-1.4c-0.2,0-0.3,0-0.4,0h-1.3h-8H11.5z"/>
<g class="st1">
	<path class="st2" d="M18.1,33.3v13.8H18l-9.3-8.4l0.1,7.8H6.2V32.8h0.1l9.3,8.5l-0.1-8H18.1z"/>
	<path class="st2" d="M27.1,44h-4.4l-1.1,2.6H19l6-13.8h0.2l6,13.8h-3L27.1,44z M26.3,41.8L25,38.6l-1.3,3.2H26.3z"/>
	<path class="st2" d="M39.1,33.3v2.5h-3.2v10.7h-2.6V35.8h-3.1v-2.5H39.1z"/>
	<path class="st2" d="M43.3,33.3v13.2h-2.6V33.3H43.3z"/>
	<path class="st2" d="M45.9,36.6c0.6-1,1.4-1.9,2.5-2.5s2.2-0.9,3.4-0.9s2.3,0.3,3.4,0.9s1.9,1.4,2.5,2.5s0.9,2.2,0.9,3.4
		c0,1.2-0.3,2.4-0.9,3.4s-1.4,1.9-2.5,2.5c-1,0.6-2.2,0.9-3.4,0.9c-1.2,0-2.4-0.3-3.4-0.9s-1.9-1.4-2.5-2.5c-0.6-1-0.9-2.2-0.9-3.4
		C45,38.8,45.3,37.6,45.9,36.6z M48.3,42.1c0.4,0.6,0.9,1.2,1.5,1.5s1.3,0.6,2.1,0.6c0.7,0,1.4-0.2,2-0.6s1.1-0.9,1.4-1.5
		s0.5-1.4,0.5-2.1c0-0.8-0.2-1.5-0.5-2.2c-0.4-0.6-0.8-1.2-1.5-1.5s-1.3-0.6-2.1-0.6s-1.4,0.2-2.1,0.6s-1.1,0.9-1.5,1.5
		s-0.5,1.4-0.5,2.2C47.7,40.7,47.9,41.4,48.3,42.1z"/>
	<path class="st2" d="M72.1,33.3v13.8H72l-9.3-8.4l0.1,7.8h-2.6V32.8h0.1l9.3,8.5l-0.1-8H72.1z"/>
	<path class="st2" d="M81.2,44h-4.4l-1.1,2.6h-2.6l6-13.8h0.1l6,13.8h-3L81.2,44z M80.3,41.8L79,38.6l-1.3,3.2H80.3z"/>
	<path class="st2" d="M88.8,33.3V44H95v2.5h-8.8V33.3H88.8z"/>
	<path class="st2" d="M109.5,34.5c0.9,0.8,1.3,1.9,1.3,3.3c0,0.8-0.2,1.5-0.5,2.2s-0.8,1.3-1.5,1.7c-0.7,0.4-1.6,0.7-2.7,0.7h-1.9
		v4.2h-2.6V33.3h4C107.4,33.3,108.6,33.7,109.5,34.5z M107.4,39.5c0.3-0.2,0.5-0.5,0.6-0.8s0.2-0.6,0.2-0.9c0-0.5-0.1-0.9-0.4-1.4
		c-0.3-0.4-0.8-0.7-1.6-0.7h-1.9v4h1.9C106.7,39.8,107.1,39.7,107.4,39.5z"/>
	<path class="st2" d="M117.5,44h-4.4l-1.1,2.6h-2.6l6-13.8h0.1l6,13.8h-3L117.5,44z M116.6,41.8l-1.3-3.2l-1.3,3.2H116.6z"/>
	<path class="st2" d="M129.6,46.6l-2.8-4.2h-1.7v4.2h-2.6V33.3h4c1.6,0,2.9,0.4,3.8,1.2c0.9,0.8,1.4,1.9,1.4,3.3
		c0,0.8-0.2,1.6-0.5,2.3c-0.3,0.7-0.9,1.3-1.6,1.7l3.1,4.8H129.6z M125.1,39.8h1.9c0.7,0,1.2-0.2,1.5-0.6s0.5-0.9,0.5-1.3
		c0-0.5-0.1-0.9-0.4-1.4c-0.3-0.4-0.8-0.7-1.6-0.7h-1.9V39.8z"/>
	<path class="st2" d="M136.5,38.7l0.4-0.5l4.3-4.9h3.4l-5.5,5.9l5.5,7.3h-3.3l-4.1-5.7l-0.6,0.6v5H134V33.3h2.6V38L136.5,38.7z"/>
</g>
<image style="overflow:visible;" width="821" height="1280" xlink:href="../../../../../Desktop/pine-tree-1480300_1280.png"  transform="matrix(5.291963e-02 0 0 5.291963e-02 -63.247 0)">
</image>
<text transform="matrix(1 0 0 1 27.649 9.0996)"><tspan x="0" y="0" class="st3 st4 st5">TAKE ME</tspan><tspan x="-9.2" y="7.2" class="st3 st4 st5">TO THE PARKS!</tspan></text>
<image style="overflow:visible;" width="1280" height="1221" xlink:href="../../../../../Desktop/pinheiro-2031696_1280.png"  transform="matrix(2.106841e-02 0 0 2.106841e-02 -59.579 50.4225)">
</image>
</svg>
